REM DIRINDEX 1\2,1\3
REM DIRNAME folder01,folder02,folder03
TITLE ""
FILE "CD2Track40.mp3" MP3
  TRACK 01 AUDIO
    TITLE "0:"
    INDEX 01 00:00:00
  TRACK 02 AUDIO
    TITLE "3:cjc102_4188"
    INDEX 01 00:00:25
  TRACK 03 AUDIO
    TITLE "0:"
    INDEX 01 00:01:21
  TRACK 04 AUDIO
    TITLE "2:cjc102_4189"
    INDEX 01 00:02:00
  TRACK 05 AUDIO
    TITLE "0:"
    INDEX 01 00:03:25
  TRACK 06 AUDIO
    TITLE "3:cjc102_4190"
    INDEX 01 00:04:07
  TRACK 07 AUDIO
    TITLE "0:"
    INDEX 01 00:04:66
  TRACK 08 AUDIO
    TITLE "2:cjc102_4191"
    INDEX 01 00:05:28
  TRACK 09 AUDIO
    TITLE "0:"
    INDEX 01 00:06:33
  TRACK 10 AUDIO
    TITLE "3:cjc102_4192"
    INDEX 01 00:07:49
  TRACK 11 AUDIO
    TITLE "0:"
    INDEX 01 00:08:46
  TRACK 12 AUDIO
    TITLE "2:cjc102_4193"
    INDEX 01 00:08:48
  TRACK 13 AUDIO
    TITLE "0:"
    INDEX 01 00:09:45
  TRACK 14 AUDIO
    TITLE "3:cjc102_4194"
    INDEX 01 00:11:11
  TRACK 15 AUDIO
    TITLE "0:"
    INDEX 01 00:12:09
  TRACK 16 AUDIO
    TITLE "2:cjc102_4195"
    INDEX 01 00:12:28
  TRACK 17 AUDIO
    TITLE "0:"
    INDEX 01 00:13:39
  TRACK 18 AUDIO
    TITLE "3:cjc102_4196"
    INDEX 01 00:14:51
  TRACK 19 AUDIO
    TITLE "0:"
    INDEX 01 00:15:30
  TRACK 20 AUDIO
    TITLE "2:cjc102_4197"
    INDEX 01 00:15:46
  TRACK 21 AUDIO
    TITLE "0:"
    INDEX 01 00:16:55
  TRACK 22 AUDIO
    TITLE "3:cjc102_4198"
    INDEX 01 00:18:27
  TRACK 23 AUDIO
    TITLE "0:"
    INDEX 01 00:19:15
  TRACK 24 AUDIO
    TITLE "2:cjc102_4199"
    INDEX 01 00:19:18
  TRACK 25 AUDIO
    TITLE "0:"
    INDEX 01 00:20:37
  TRACK 26 AUDIO
    TITLE "3:cjc102_4200"
    INDEX 01 00:21:62
  TRACK 27 AUDIO
    TITLE "0:"
    INDEX 01 00:22:42
  TRACK 28 AUDIO
    TITLE "2:cjc102_4201"
    INDEX 01 00:22:44
  TRACK 29 AUDIO
    TITLE "0:"
    INDEX 01 00:23:57
  TRACK 30 AUDIO
    TITLE "3:cjc102_4202"
    INDEX 01 00:25:19
  TRACK 31 AUDIO
    TITLE "0:"
    INDEX 01 00:26:15
  TRACK 32 AUDIO
    TITLE "2:cjc102_4203"
    INDEX 01 00:26:54
  TRACK 33 AUDIO
    TITLE "0:"
    INDEX 01 00:27:57
  TRACK 34 AUDIO
    TITLE "3:cjc102_4204"
    INDEX 01 00:29:25
  TRACK 35 AUDIO
    TITLE "0:"
    INDEX 01 00:30:18
  TRACK 36 AUDIO
    TITLE "2:cjc102_4205"
    INDEX 01 00:30:40
  TRACK 37 AUDIO
    TITLE "0:"
    INDEX 01 00:31:49
  TRACK 38 AUDIO
    TITLE "2:cjc102_4206"
    INDEX 01 00:32:21
  TRACK 39 AUDIO
    TITLE "0:"
    INDEX 01 00:33:24
  TRACK 40 AUDIO
    TITLE "3:cjc102_4207"
    INDEX 01 00:34:24
  TRACK 41 AUDIO
    TITLE "0:"
    INDEX 01 00:35:17
  TRACK 42 AUDIO
    TITLE "2:cjc102_4208"
    INDEX 01 00:35:51
  TRACK 43 AUDIO
    TITLE "0:"
    INDEX 01 00:36:66
  TRACK 44 AUDIO
    TITLE "2:cjc102_4209"
    INDEX 01 00:37:38
  TRACK 45 AUDIO
    TITLE "0:"
    INDEX 01 00:38:37
  TRACK 46 AUDIO
    TITLE "3:cjc102_4210"
    INDEX 01 00:40:46
  TRACK 47 AUDIO
    TITLE "0:"
    INDEX 01 00:42:06
  TRACK 48 AUDIO
    TITLE "2:cjc102_4211"
    INDEX 01 00:42:27
  TRACK 49 AUDIO
    TITLE "0:"
    INDEX 01 00:43:33
  TRACK 50 AUDIO
    TITLE "2:cjc102_4212"
    INDEX 01 00:44:05
  TRACK 51 AUDIO
    TITLE "0:"
    INDEX 01 00:45:16
  TRACK 52 AUDIO
    TITLE "3:cjc102_4213"
    INDEX 01 00:46:31
  TRACK 53 AUDIO
    TITLE "0:"
    INDEX 01 00:47:42
  TRACK 54 AUDIO
    TITLE "2:cjc102_4214"
    INDEX 01 00:47:64
  TRACK 55 AUDIO
    TITLE "0:"
    INDEX 01 00:49:00
  TRACK 56 AUDIO
    TITLE "2:cjc102_4215"
    INDEX 01 00:49:51
  TRACK 57 AUDIO
    TITLE "0:"
    INDEX 01 00:50:66
  TRACK 58 AUDIO
    TITLE "3:cjc102_4216"
    INDEX 01 00:52:16
  TRACK 59 AUDIO
    TITLE "0:"
    INDEX 01 00:53:33
  TRACK 60 AUDIO
    TITLE "2:cjc102_4217"
    INDEX 01 00:53:68
  TRACK 61 AUDIO
    TITLE "0:"
    INDEX 01 00:55:10
  TRACK 62 AUDIO
    TITLE "2:cjc102_4218"
    INDEX 01 00:55:65
  TRACK 63 AUDIO
    TITLE "0:"
    INDEX 01 00:56:72
  TRACK 64 AUDIO
    TITLE "3:cjc102_4219"
    INDEX 01 00:57:50
  TRACK 65 AUDIO
    TITLE "0:"
    INDEX 01 00:58:69
  TRACK 66 AUDIO
    TITLE "2:cjc102_4220"
    INDEX 01 00:59:45
  TRACK 67 AUDIO
    TITLE "0:"
    INDEX 01 01:00:51
  TRACK 68 AUDIO
    TITLE "2:cjc102_4221"
    INDEX 01 01:01:38
  TRACK 69 AUDIO
    TITLE "0:"
    INDEX 01 01:02:52
